solid b'Exported from Blender-2.72 (sub 0)\x00\x00\x00\x00\x00\x00\x00\x00\x00\x00\x00\x00\x00\x00\x00\x00\x00\x00\x00\x00\x00\x00\x00\x00\x00\x00\x00\x00\x00\x00\x00\x00\x00\x00\x00\x00\x00\x00\x00\x00\x00\x00\x00\x00\x00\x00'
facet normal 1.6325961e-05 -4.0148498e-06 -8.42473e-06
  outer loop
    vertex 0.012165172 0.009117205 0.0022843983
    vertex 0.011806614 0.0052856393 0.0034155147
    vertex 0.009332831 0.0023468407 2.216571e-05
  endloop
endfacet
facet normal 1.5316138e-05 -4.4020844e-06 -6.00151e-06
  outer loop
    vertex 0.009332831 0.0023468407 2.216571e-05
    vertex 0.011278734 0.009117205 2.216571e-05
    vertex 0.012165172 0.009117205 0.0022843983
  endloop
endfacet
facet normal 1.531614e-05 4.4020844e-06 -6.0015113e-06
  outer loop
    vertex 0.012165172 0.009117205 0.0022843983
    vertex 0.011278734 0.009117205 2.216571e-05
    vertex 0.009332831 0.01588757 2.216571e-05
  endloop
endfacet
facet normal 1.6325965e-05 4.0148498e-06 -8.424732e-06
  outer loop
    vertex 0.009332831 0.01588757 2.216571e-05
    vertex 0.011806614 0.012948771 0.0034155147
    vertex 0.012165172 0.009117205 0.0022843983
  endloop
endfacet
facet normal 1.7335788e-05 9.069058e-07 2.4232882e-06
  outer loop
    vertex 0.012165172 0.009117205 0.0022843983
    vertex 0.011806614 0.012948771 0.0034155147
    vertex 0.011532718 0.009117206 0.006808864
  endloop
endfacet
facet normal 1.7335786e-05 -9.069057e-07 2.4232882e-06
  outer loop
    vertex 0.011532718 0.009117206 0.006808864
    vertex 0.011806614 0.0052856393 0.0034155147
    vertex 0.012165172 0.009117205 0.0022843983
  endloop
endfacet
facet normal 1.2267609e-06 -1.6767654e-05 -8.424683e-06
  outer loop
    vertex 0.0037689926 -0.002439036 0.0022843983
    vertex 1.4121761e-05 -0.0032820655 0.0034155147
    vertex -0.0035452517 -0.0018375348 2.216571e-05
  endloop
endfacet
facet normal 5.463931e-07 -1.5926962e-05 -6.0013895e-06
  outer loop
    vertex -0.0035452517 -0.0018375348 2.216571e-05
    vertex 0.0034951214 -0.0015960066 2.216571e-05
    vertex 0.0037689926 -0.002439036 0.0022843983
  endloop
endfacet
facet normal 8.919637e-06 -1.3206257e-05 -6.0011935e-06
  outer loop
    vertex 0.0037689926 -0.002439036 0.0022843983
    vertex 0.0034951214 -0.0015960066 2.216571e-05
    vertex 0.009332831 0.0023468407 2.216571e-05
  endloop
endfacet
facet normal 8.863379e-06 -1.428638e-05 -8.424618e-06
  outer loop
    vertex 0.009332831 0.0023468407 2.216571e-05
    vertex 0.0073022414 -0.00091399625 0.0034155147
    vertex 0.0037689926 -0.002439036 0.0022843983
  endloop
endfacet
facet normal 6.2196223e-06 -1.6207194e-05 2.423395e-06
  outer loop
    vertex 0.0037689926 -0.002439036 0.0022843983
    vertex 0.0073022414 -0.00091399625 0.0034155147
    vertex 0.003573495 -0.0018375348 0.006808864
  endloop
endfacet
facet normal 4.4946255e-06 -1.6767655e-05 2.4233698e-06
  outer loop
    vertex 0.003573495 -0.0018375348 0.006808864
    vertex 1.4121761e-05 -0.0032820655 0.0034155147
    vertex 0.0037689926 -0.002439036 0.0022843983
  endloop
endfacet
facet normal -1.5567884e-05 -6.348311e-06 -8.4247e-06
  outer loop
    vertex -0.009816262 0.0019750642 0.0022843983
    vertex -0.0117783705 0.0052856393 0.0034155147
    vertex -0.011504475 0.009117206 2.216571e-05
  endloop
endfacet
facet normal -1.4978582e-05 -5.441411e-06 -6.001278e-06
  outer loop
    vertex -0.011504475 0.009117206 2.216571e-05
    vertex -0.009099147 0.0024960553 2.216571e-05
    vertex -0.009816262 0.0019750642 0.0022843983
  endloop
endfacet
facet normal -9.803589e-06 -1.2564204e-05 -6.0012117e-06
  outer loop
    vertex -0.009816262 0.0019750642 0.0022843983
    vertex -0.009099147 0.0024960553 2.216571e-05
    vertex -0.0035452517 -0.0018375348 2.216571e-05
  endloop
endfacet
facet normal -1.084822e-05 -1.2844434e-05 -8.424695e-06
  outer loop
    vertex -0.0035452517 -0.0018375348 2.216571e-05
    vertex -0.007273998 -0.00091399625 0.0034155147
    vertex -0.009816262 0.0019750642 0.0022843983
  endloop
endfacet
facet normal -1.34919765e-05 -1.0923622e-05 2.4234116e-06
  outer loop
    vertex -0.009816262 0.0019750642 0.0022843983
    vertex -0.007273998 -0.00091399625 0.0034155147
    vertex -0.009304588 0.0023468407 0.006808864
  endloop
endfacet
facet normal -1.4558061e-05 -9.456256e-06 2.4234018e-06
  outer loop
    vertex -0.009304588 0.0023468407 0.006808864
    vertex -0.0117783705 0.0052856393 0.0034155147
    vertex -0.009816262 0.0019750642 0.0022843983
  endloop
endfacet
facet normal -1.0848216e-05 1.2844435e-05 -8.424691e-06
  outer loop
    vertex -0.009816262 0.016259346 0.0022843983
    vertex -0.007273998 0.019148406 0.0034155147
    vertex -0.0035452517 0.020071944 2.216571e-05
  endloop
endfacet
facet normal -9.803587e-06 1.2564204e-05 -6.00121e-06
  outer loop
    vertex -0.0035452517 0.020071944 2.216571e-05
    vertex -0.009099147 0.015738355 2.216571e-05
    vertex -0.009816262 0.016259346 0.0022843983
  endloop
endfacet
facet normal -1.4978579e-05 5.441411e-06 -6.0012776e-06
  outer loop
    vertex -0.009816262 0.016259346 0.0022843983
    vertex -0.009099147 0.015738355 2.216571e-05
    vertex -0.011504475 0.009117206 2.216571e-05
  endloop
endfacet
facet normal -1.5567883e-05 6.348311e-06 -8.4246985e-06
  outer loop
    vertex -0.011504475 0.009117206 2.216571e-05
    vertex -0.0117783705 0.012948771 0.0034155147
    vertex -0.009816262 0.016259346 0.0022843983
  endloop
endfacet
facet normal -1.4558062e-05 9.456256e-06 2.4234018e-06
  outer loop
    vertex -0.009816262 0.016259346 0.0022843983
    vertex -0.0117783705 0.012948771 0.0034155147
    vertex -0.009304588 0.01588757 0.006808864
  endloop
endfacet
facet normal -1.3491973e-05 1.0923622e-05 2.4234112e-06
  outer loop
    vertex -0.009304588 0.01588757 0.006808864
    vertex -0.007273998 0.019148406 0.0034155147
    vertex -0.009816262 0.016259346 0.0022843983
  endloop
endfacet
facet normal 8.863381e-06 1.4286379e-05 -8.424613e-06
  outer loop
    vertex 0.0037689926 0.020673446 0.0022843983
    vertex 0.0073022414 0.019148406 0.0034155147
    vertex 0.009332831 0.01588757 2.216571e-05
  endloop
endfacet
facet normal 8.919637e-06 1.3206257e-05 -6.0011935e-06
  outer loop
    vertex 0.009332831 0.01588757 2.216571e-05
    vertex 0.0034951214 0.019830417 2.216571e-05
    vertex 0.0037689926 0.020673446 0.0022843983
  endloop
endfacet
facet normal 5.46391e-07 1.5926962e-05 -6.0013895e-06
  outer loop
    vertex 0.0037689926 0.020673446 0.0022843983
    vertex 0.0034951214 0.019830417 2.216571e-05
    vertex -0.0035452517 0.020071944 2.216571e-05
  endloop
endfacet
facet normal 1.2267599e-06 1.6767652e-05 -8.424687e-06
  outer loop
    vertex -0.0035452517 0.020071944 2.216571e-05
    vertex 1.4121761e-05 0.021516476 0.0034155147
    vertex 0.0037689926 0.020673446 0.0022843983
  endloop
endfacet
facet normal 4.494627e-06 1.6767654e-05 2.4233732e-06
  outer loop
    vertex 0.0037689926 0.020673446 0.0022843983
    vertex 1.4121761e-05 0.021516476 0.0034155147
    vertex 0.003573495 0.020071944 0.006808864
  endloop
endfacet
facet normal 6.219626e-06 1.6207192e-05 2.4233987e-06
  outer loop
    vertex 0.003573495 0.020071944 0.006808864
    vertex 0.0073022414 0.019148406 0.0034155147
    vertex 0.0037689926 0.020673446 0.0022843983
  endloop
endfacet
facet normal 1.34919765e-05 -1.0923622e-05 -2.4234116e-06
  outer loop
    vertex 0.009844505 0.0019750642 0.004546631
    vertex 0.0073022414 -0.00091399625 0.0034155147
    vertex 0.009332831 0.0023468407 2.216571e-05
  endloop
endfacet
facet normal 1.4558061e-05 -9.456256e-06 -2.4234018e-06
  outer loop
    vertex 0.009332831 0.0023468407 2.216571e-05
    vertex 0.011806614 0.0052856393 0.0034155147
    vertex 0.009844505 0.0019750642 0.004546631
  endloop
endfacet
facet normal 1.5567884e-05 -6.3483117e-06 8.4247e-06
  outer loop
    vertex 0.009844505 0.0019750642 0.004546631
    vertex 0.011806614 0.0052856393 0.0034155147
    vertex 0.011532718 0.009117206 0.006808864
  endloop
endfacet
facet normal 1.4978584e-05 -5.4414113e-06 6.001278e-06
  outer loop
    vertex 0.011532718 0.009117206 0.006808864
    vertex 0.009127391 0.0024960553 0.006808864
    vertex 0.009844505 0.0019750642 0.004546631
  endloop
endfacet
facet normal 9.80359e-06 -1.25642055e-05 6.0012117e-06
  outer loop
    vertex 0.009844505 0.0019750642 0.004546631
    vertex 0.009127391 0.0024960553 0.006808864
    vertex 0.003573495 -0.0018375348 0.006808864
  endloop
endfacet
facet normal 1.0848221e-05 -1.2844435e-05 8.424695e-06
  outer loop
    vertex 0.003573495 -0.0018375348 0.006808864
    vertex 0.0073022414 -0.00091399625 0.0034155147
    vertex 0.009844505 0.0019750642 0.004546631
  endloop
endfacet
facet normal -6.2196223e-06 -1.6207196e-05 -2.4233948e-06
  outer loop
    vertex -0.0037407489 -0.002439036 0.004546631
    vertex -0.007273998 -0.00091399625 0.0034155147
    vertex -0.0035452517 -0.0018375348 2.216571e-05
  endloop
endfacet
facet normal -4.494626e-06 -1.6767654e-05 -2.423369e-06
  outer loop
    vertex -0.0035452517 -0.0018375348 2.216571e-05
    vertex 1.4121761e-05 -0.0032820655 0.0034155147
    vertex -0.0037407489 -0.002439036 0.004546631
  endloop
endfacet
facet normal -1.2267611e-06 -1.6767652e-05 8.424682e-06
  outer loop
    vertex -0.0037407489 -0.002439036 0.004546631
    vertex 1.4121761e-05 -0.0032820655 0.0034155147
    vertex 0.003573495 -0.0018375348 0.006808864
  endloop
endfacet
facet normal -5.4639315e-07 -1.5926964e-05 6.0013895e-06
  outer loop
    vertex 0.003573495 -0.0018375348 0.006808864
    vertex -0.003466878 -0.0015960066 0.006808864
    vertex -0.0037407489 -0.002439036 0.004546631
  endloop
endfacet
facet normal -8.919638e-06 -1.3206259e-05 6.0011917e-06
  outer loop
    vertex -0.0037407489 -0.002439036 0.004546631
    vertex -0.003466878 -0.0015960066 0.006808864
    vertex -0.009304588 0.0023468407 0.006808864
  endloop
endfacet
facet normal -8.863378e-06 -1.4286381e-05 8.424619e-06
  outer loop
    vertex -0.009304588 0.0023468407 0.006808864
    vertex -0.007273998 -0.00091399625 0.0034155147
    vertex -0.0037407489 -0.002439036 0.004546631
  endloop
endfacet
facet normal -1.7335788e-05 9.0690264e-07 -2.4232845e-06
  outer loop
    vertex -0.012136928 0.009117205 0.004546631
    vertex -0.0117783705 0.012948771 0.0034155147
    vertex -0.011504475 0.009117206 2.216571e-05
  endloop
endfacet
facet normal -1.7335786e-05 -9.069025e-07 -2.4232845e-06
  outer loop
    vertex -0.011504475 0.009117206 2.216571e-05
    vertex -0.0117783705 0.0052856393 0.0034155147
    vertex -0.012136928 0.009117205 0.004546631
  endloop
endfacet
facet normal -1.6325963e-05 -4.0148466e-06 8.424733e-06
  outer loop
    vertex -0.012136928 0.009117205 0.004546631
    vertex -0.0117783705 0.0052856393 0.0034155147
    vertex -0.009304588 0.0023468407 0.006808864
  endloop
endfacet
facet normal -1.531614e-05 -4.402085e-06 6.0015045e-06
  outer loop
    vertex -0.009304588 0.0023468407 0.006808864
    vertex -0.01125049 0.009117205 0.006808864
    vertex -0.012136928 0.009117205 0.004546631
  endloop
endfacet
facet normal -1.5316142e-05 4.402085e-06 6.0015054e-06
  outer loop
    vertex -0.012136928 0.009117205 0.004546631
    vertex -0.01125049 0.009117205 0.006808864
    vertex -0.009304588 0.01588757 0.006808864
  endloop
endfacet
facet normal -1.6325966e-05 4.0148466e-06 8.424735e-06
  outer loop
    vertex -0.009304588 0.01588757 0.006808864
    vertex -0.0117783705 0.012948771 0.0034155147
    vertex -0.012136928 0.009117205 0.004546631
  endloop
endfacet
facet normal -4.494627e-06 1.6767652e-05 -2.4233725e-06
  outer loop
    vertex -0.0037407489 0.020673446 0.004546631
    vertex 1.4121761e-05 0.021516476 0.0034155147
    vertex -0.0035452517 0.020071944 2.216571e-05
  endloop
endfacet
facet normal -6.2196254e-06 1.6207194e-05 -2.4233982e-06
  outer loop
    vertex -0.0035452517 0.020071944 2.216571e-05
    vertex -0.007273998 0.019148406 0.0034155147
    vertex -0.0037407489 0.020673446 0.004546631
  endloop
endfacet
facet normal -8.863381e-06 1.4286382e-05 8.424614e-06
  outer loop
    vertex -0.0037407489 0.020673446 0.004546631
    vertex -0.007273998 0.019148406 0.0034155147
    vertex -0.009304588 0.01588757 0.006808864
  endloop
endfacet
facet normal -8.919638e-06 1.3206259e-05 6.0011917e-06
  outer loop
    vertex -0.009304588 0.01588757 0.006808864
    vertex -0.003466878 0.019830417 0.006808864
    vertex -0.0037407489 0.020673446 0.004546631
  endloop
endfacet
facet normal -5.463911e-07 1.5926964e-05 6.001389e-06
  outer loop
    vertex -0.0037407489 0.020673446 0.004546631
    vertex -0.003466878 0.019830417 0.006808864
    vertex 0.003573495 0.020071944 0.006808864
  endloop
endfacet
facet normal -1.2267599e-06 1.6767652e-05 8.424686e-06
  outer loop
    vertex 0.003573495 0.020071944 0.006808864
    vertex 1.4121761e-05 0.021516476 0.0034155147
    vertex -0.0037407489 0.020673446 0.004546631
  endloop
endfacet
facet normal 1.4558062e-05 9.456256e-06 -2.4234018e-06
  outer loop
    vertex 0.009844505 0.016259346 0.004546631
    vertex 0.011806614 0.012948771 0.0034155147
    vertex 0.009332831 0.01588757 2.216571e-05
  endloop
endfacet
facet normal 1.3491973e-05 1.0923622e-05 -2.4234112e-06
  outer loop
    vertex 0.009332831 0.01588757 2.216571e-05
    vertex 0.0073022414 0.019148406 0.0034155147
    vertex 0.009844505 0.016259346 0.004546631
  endloop
endfacet
facet normal 1.0848218e-05 1.2844435e-05 8.424691e-06
  outer loop
    vertex 0.009844505 0.016259346 0.004546631
    vertex 0.0073022414 0.019148406 0.0034155147
    vertex 0.003573495 0.020071944 0.006808864
  endloop
endfacet
facet normal 9.803588e-06 1.2564205e-05 6.00121e-06
  outer loop
    vertex 0.003573495 0.020071944 0.006808864
    vertex 0.009127391 0.015738355 0.006808864
    vertex 0.009844505 0.016259346 0.004546631
  endloop
endfacet
facet normal 1.4978581e-05 5.4414113e-06 6.0012776e-06
  outer loop
    vertex 0.009844505 0.016259346 0.004546631
    vertex 0.009127391 0.015738355 0.006808864
    vertex 0.011532718 0.009117206 0.006808864
  endloop
endfacet
facet normal 1.5567883e-05 6.3483117e-06 8.4246985e-06
  outer loop
    vertex 0.011532718 0.009117206 0.006808864
    vertex 0.011806614 0.012948771 0.0034155147
    vertex 0.009844505 0.016259346 0.004546631
  endloop
endfacet
facet normal 1.352091e-09 -9.115034e-09 8.03112e-07
  outer loop
    vertex -0.0009982084 0.019395566 0.0067997724
    vertex -0.003466878 0.019830417 0.006808864
    vertex -0.0020007892 0.019246846 0.0067997724
  endloop
endfacet
facet normal 2.2389948e-09 -8.938617e-09 9.3480855e-07
  outer loop
    vertex -0.0020007892 0.019246846 0.0067997724
    vertex -0.003466878 0.019830417 0.006808864
    vertex -0.0029839654 0.019000575 0.0067997724
  endloop
endfacet
facet normal 3.104375e-09 -8.676118e-09 9.568146e-07
  outer loop
    vertex -0.0029839654 0.019000575 0.0067997724
    vertex -0.003466878 0.019830417 0.006808864
    vertex -0.003938269 0.018659119 0.0067997724
  endloop
endfacet
facet normal 3.939815e-09 -8.330055e-09 8.6891333e-07
  outer loop
    vertex -0.003938269 0.018659119 0.0067997724
    vertex -0.003466878 0.019830417 0.006808864
    vertex -0.004854508 0.01822577 0.0067997724
  endloop
endfacet
facet normal 4.7373563e-09 -7.90377e-09 6.719476e-07
  outer loop
    vertex -0.004854508 0.01822577 0.0067997724
    vertex -0.003466878 0.019830417 0.006808864
    vertex -0.0057238596 0.0177047 0.0067997724
  endloop
endfacet
facet normal 3.5846675e-08 -5.307395e-08 3.5103894e-06
  outer loop
    vertex -0.003466878 0.019830417 0.006808864
    vertex -0.009304588 0.01588757 0.006808864
    vertex -0.0057238596 0.0177047 0.0067997724
  endloop
endfacet
facet normal 6.1882592e-09 -6.8276926e-09 9.719122e-07
  outer loop
    vertex -0.007288943 0.016420271 0.0067997724
    vertex -0.0065379515 0.01710093 0.0067997724
    vertex -0.009304588 0.01588757 0.006808864
  endloop
endfacet
facet normal 6.827701e-09 -6.1882592e-09 1.1511457e-06
  outer loop
    vertex -0.007288943 0.016420271 0.0067997724
    vertex -0.009304588 0.01588757 0.006808864
    vertex -0.007969602 0.015669279 0.0067997724
  endloop
endfacet
facet normal 7.4013697e-09 -5.489234e-09 1.2185983e-06
  outer loop
    vertex -0.007969602 0.015669279 0.0067997724
    vertex -0.009304588 0.01588757 0.006808864
    vertex -0.008573374 0.014855187 0.0067997724
  endloop
endfacet
facet normal 7.903779e-09 -4.7373394e-09 1.1736254e-06
  outer loop
    vertex -0.008573374 0.014855187 0.0067997724
    vertex -0.009304588 0.01588757 0.006808864
    vertex -0.009094443 0.013985835 0.0067997724
  endloop
endfacet
facet normal 8.330067e-09 -3.9398236e-09 1.016658e-06
  outer loop
    vertex -0.009094443 0.013985835 0.0067997724
    vertex -0.009304588 0.01588757 0.006808864
    vertex -0.009527792 0.013069594 0.0067997724
  endloop
endfacet
facet normal 8.676113e-09 -3.1043665e-09 7.492083e-07
  outer loop
    vertex -0.009527792 0.013069594 0.0067997724
    vertex -0.009304588 0.01588757 0.006808864
    vertex -0.009869248 0.012115291 0.0067997724
  endloop
endfacet
facet normal 6.155325e-08 -1.7691312e-08 3.5175321e-06
  outer loop
    vertex -0.009304588 0.01588757 0.006808864
    vertex -0.01125049 0.009117205 0.006808864
    vertex -0.009869248 0.012115291 0.0067997724
  endloop
endfacet
facet normal 5.489209e-09 -7.4013737e-09 6.8262216e-07
  outer loop
    vertex -0.009304588 0.01588757 0.006808864
    vertex -0.0065379515 0.01710093 0.0067997724
    vertex -0.0057238596 0.0177047 0.0067997724
  endloop
endfacet
facet normal 9.203678e-09 -4.521477e-10 9.4806666e-07
  outer loop
    vertex -0.010313972 0.009117203 0.0067997724
    vertex -0.010264239 0.010129534 0.0067997724
    vertex -0.01125049 0.009117205 0.006808864
  endloop
endfacet
facet normal 9.203678e-09 4.521477e-10 9.4806643e-07
  outer loop
    vertex -0.010313972 0.009117203 0.0067997724
    vertex -0.01125049 0.009117205 0.006808864
    vertex -0.010264239 0.008104872 0.0067997724
  endloop
endfacet
facet normal 9.115035e-09 1.352091e-09 8.3824307e-07
  outer loop
    vertex -0.010264239 0.008104872 0.0067997724
    vertex -0.01125049 0.009117205 0.006808864
    vertex -0.01011552 0.007102291 0.0067997724
  endloop
endfacet
facet normal 8.938621e-09 2.2390116e-09 6.196568e-07
  outer loop
    vertex -0.01011552 0.007102291 0.0067997724
    vertex -0.01125049 0.009117205 0.006808864
    vertex -0.009869247 0.0061191143 0.0067997724
  endloop
endfacet
facet normal 6.1553244e-08 1.7691312e-08 3.5175299e-06
  outer loop
    vertex -0.01125049 0.009117205 0.006808864
    vertex -0.009304588 0.0023468407 0.006808864
    vertex -0.009869247 0.0061191143 0.0067997724
  endloop
endfacet
facet normal 8.938622e-09 -2.2390116e-09 6.196567e-07
  outer loop
    vertex -0.01125049 0.009117205 0.006808864
    vertex -0.010115521 0.011132115 0.0067997724
    vertex -0.009869248 0.012115291 0.0067997724
  endloop
endfacet
facet normal 9.115035e-09 -1.352082e-09 8.3824466e-07
  outer loop
    vertex -0.01125049 0.009117205 0.006808864
    vertex -0.010264239 0.010129534 0.0067997724
    vertex -0.010115521 0.011132115 0.0067997724
  endloop
endfacet
facet normal 5.3536247e-09 1.5605487e-07 -3.5521355e-06
  outer loop
    vertex -0.0035452517 0.020071944 2.216571e-05
    vertex 0.0034951214 0.019830417 2.216571e-05
    vertex 1.4121761e-05 0.019445298 0.0
  endloop
endfacet
facet normal 6.8276926e-09 6.188276e-09 1.1511439e-06
  outer loop
    vertex -0.0072889393 0.0018141363 0.0067997724
    vertex -0.0079696 0.0025651278 0.0067997724
    vertex -0.009304588 0.0023468407 0.006808864
  endloop
endfacet
facet normal 6.1882592e-09 6.827697e-09 9.719124e-07
  outer loop
    vertex -0.0072889393 0.0018141363 0.0067997724
    vertex -0.009304588 0.0023468407 0.006808864
    vertex -0.0065379473 0.0011334773 0.0067997724
  endloop
endfacet
facet normal 5.489234e-09 7.401378e-09 6.8262955e-07
  outer loop
    vertex -0.0065379473 0.0011334773 0.0067997724
    vertex -0.009304588 0.0023468407 0.006808864
    vertex -0.005723855 0.00052970555 0.0067997724
  endloop
endfacet
facet normal 3.5846675e-08 5.307395e-08 3.5103749e-06
  outer loop
    vertex -0.009304588 0.0023468407 0.006808864
    vertex -0.003466878 -0.0015960066 0.006808864
    vertex -0.005723855 0.00052970555 0.0067997724
  endloop
endfacet
facet normal 3.9398236e-09 8.330064e-09 8.6891333e-07
  outer loop
    vertex -0.0039382624 -0.00042471197 0.0067997724
    vertex -0.0048545026 8.637086e-06 0.0067997724
    vertex -0.003466878 -0.0015960066 0.006808864
  endloop
endfacet
facet normal 3.104358e-09 8.676118e-09 9.568141e-07
  outer loop
    vertex -0.0039382624 -0.00042471197 0.0067997724
    vertex -0.003466878 -0.0015960066 0.006808864
    vertex -0.002983959 -0.0007661665 0.0067997724
  endloop
endfacet
facet normal 2.2390032e-09 8.938621e-09 9.348092e-07
  outer loop
    vertex -0.002983959 -0.0007661665 0.0067997724
    vertex -0.003466878 -0.0015960066 0.006808864
    vertex -0.0020007822 -0.0010124389 0.0067997724
  endloop
endfacet
facet normal 1.3520824e-09 9.115041e-09 8.031094e-07
  outer loop
    vertex -0.0020007822 -0.0010124389 0.0067997724
    vertex -0.003466878 -0.0015960066 0.006808864
    vertex -0.0009982006 -0.0011611572 0.0067997724
  endloop
endfacet
facet normal 2.1958713e-09 6.400805e-08 3.5521343e-06
  outer loop
    vertex 0.003573495 -0.0018375348 0.006808864
    vertex 1.4130051e-05 -0.0012108888 0.0067997724
    vertex -0.003466878 -0.0015960066 0.006808864
  endloop
endfacet
facet normal -4.5215617e-10 9.203675e-09 8.1139274e-07
  outer loop
    vertex 1.4130051e-05 -0.0012108888 0.0067997724
    vertex 0.003573495 -0.0018375348 0.006808864
    vertex 0.0010264606 -0.0011611553 0.0067997724
  endloop
endfacet
facet normal -1.352091e-09 9.1150385e-09 1.0569183e-06
  outer loop
    vertex 0.0010264606 -0.0011611553 0.0067997724
    vertex 0.003573495 -0.0018375348 0.006808864
    vertex 0.0020290418 -0.0010124361 0.0067997724
  endloop
endfacet
facet normal -2.23902e-09 8.938617e-09 1.1915765e-06
  outer loop
    vertex 0.0020290418 -0.0010124361 0.0067997724
    vertex 0.003573495 -0.0018375348 0.006808864
    vertex 0.003012218 -0.00076616183 0.0067997724
  endloop
endfacet
facet normal -6.019665e-08 -2.1868209e-08 3.615712e-06
  outer loop
    vertex 0.011532718 0.009117206 0.006808864
    vertex 0.009127391 0.015738355 0.006808864
    vertex 0.009897494 0.012115281 0.0067997724
  endloop
endfacet
facet normal -3.9398236e-09 8.330055e-09 1.1241724e-06
  outer loop
    vertex 0.003966521 -0.00042470545 0.0067997724
    vertex 0.003573495 -0.0018375348 0.006808864
    vertex 0.0048827603 8.643605e-06 0.0067997724
  endloop
endfacet
facet normal -4.7373563e-09 7.90377e-09 9.2275735e-07
  outer loop
    vertex 0.0048827603 8.643605e-06 0.0067997724
    vertex 0.003573495 -0.0018375348 0.006808864
    vertex 0.005752112 0.00052971486 0.0067997724
  endloop
endfacet
facet normal -5.4892424e-09 7.4013697e-09 6.117683e-07
  outer loop
    vertex 0.005752112 0.00052971486 0.0067997724
    vertex 0.003573495 -0.0018375348 0.006808864
    vertex 0.006566203 0.0011334876 0.0067997724
  endloop
endfacet
facet normal 7.401378e-09 5.4892335e-09 1.2185988e-06
  outer loop
    vertex -0.009304588 0.0023468407 0.006808864
    vertex -0.0079696 0.0025651278 0.0067997724
    vertex -0.008573372 0.0033792201 0.0067997724
  endloop
endfacet
facet normal -6.8276886e-09 6.188238e-09 8.9529567e-07
  outer loop
    vertex 0.007317195 0.0018141479 0.0067997724
    vertex 0.009127391 0.0024960553 0.006808864
    vertex 0.007997852 0.002565139 0.0067997724
  endloop
endfacet
facet normal -7.4013613e-09 5.489217e-09 9.612573e-07
  outer loop
    vertex 0.007997852 0.002565139 0.0067997724
    vertex 0.009127391 0.0024960553 0.006808864
    vertex 0.008601622 0.0033792295 0.0067997724
  endloop
endfacet
facet normal -7.903762e-09 4.7373225e-09 9.1727077e-07
  outer loop
    vertex 0.008601622 0.0033792295 0.0067997724
    vertex 0.009127391 0.0024960553 0.006808864
    vertex 0.009122689 0.00424858 0.0067997724
  endloop
endfacet
facet normal -8.330038e-09 3.939815e-09 7.637608e-07
  outer loop
    vertex 0.009122689 0.00424858 0.0067997724
    vertex 0.009127391 0.0024960553 0.006808864
    vertex 0.009556037 0.0051648174 0.0067997724
  endloop
endfacet
facet normal -8.676101e-09 3.1043494e-09 5.0220007e-07
  outer loop
    vertex 0.009556037 0.0051648174 0.0067997724
    vertex 0.009127391 0.0024960553 0.006808864
    vertex 0.009897491 0.006119119 0.0067997724
  endloop
endfacet
facet normal -8.938596e-09 2.2390032e-09 8.6936694e-07
  outer loop
    vertex 0.009897491 0.006119119 0.0067997724
    vertex 0.011532718 0.009117206 0.006808864
    vertex 0.010143763 0.007102293 0.0067997724
  endloop
endfacet
facet normal -9.115018e-09 1.352091e-09 1.0928809e-06
  outer loop
    vertex 0.010143763 0.007102293 0.0067997724
    vertex 0.011532718 0.009117206 0.006808864
    vertex 0.010292483 0.008104872 0.0067997724
  endloop
endfacet
facet normal 4.5213921e-10 9.203676e-09 5.629829e-07
  outer loop
    vertex 1.4130051e-05 -0.0012108888 0.0067997724
    vertex -0.0009982006 -0.0011611572 0.0067997724
    vertex -0.003466878 -0.0015960066 0.006808864
  endloop
endfacet
facet normal -9.203653e-09 -4.5213921e-10 1.20518e-06
  outer loop
    vertex 0.010342215 0.0091172 0.0067997724
    vertex 0.011532718 0.009117206 0.006808864
    vertex 0.0102924835 0.010129528 0.0067997724
  endloop
endfacet
facet normal -9.115018e-09 -1.3520824e-09 1.0928826e-06
  outer loop
    vertex 0.0102924835 0.010129528 0.0067997724
    vertex 0.011532718 0.009117206 0.006808864
    vertex 0.010143765 0.011132107 0.0067997724
  endloop
endfacet
facet normal -8.938596e-09 -2.2389948e-09 8.693697e-07
  outer loop
    vertex 0.010143765 0.011132107 0.0067997724
    vertex 0.011532718 0.009117206 0.006808864
    vertex 0.009897494 0.012115281 0.0067997724
  endloop
endfacet
facet normal -8.676104e-09 -3.104341e-09 5.0219717e-07
  outer loop
    vertex 0.009897494 0.012115281 0.0067997724
    vertex 0.009127391 0.015738355 0.006808864
    vertex 0.009556041 0.013069583 0.0067997724
  endloop
endfacet
facet normal -8.330042e-09 -3.9398067e-09 7.63759e-07
  outer loop
    vertex 0.009556041 0.013069583 0.0067997724
    vertex 0.009127391 0.015738355 0.006808864
    vertex 0.009122694 0.013985821 0.0067997724
  endloop
endfacet
facet normal -7.90377e-09 -4.737314e-09 9.1727e-07
  outer loop
    vertex 0.009122694 0.013985821 0.0067997724
    vertex 0.009127391 0.015738355 0.006808864
    vertex 0.008601627 0.0148551725 0.0067997724
  endloop
endfacet
facet normal -7.4013697e-09 -5.4892086e-09 9.612576e-07
  outer loop
    vertex 0.008601627 0.0148551725 0.0067997724
    vertex 0.009127391 0.015738355 0.006808864
    vertex 0.007997858 0.015669264 0.0067997724
  endloop
endfacet
facet normal -4.5218157e-10 -9.203993e-09 8.114251e-07
  outer loop
    vertex 1.4121761e-05 0.019445298 0.0067997724
    vertex 0.0010264873 0.019395562 0.0067997724
    vertex 0.003573495 0.020071944 0.006808864
  endloop
endfacet
facet normal -6.188276e-09 -6.8276713e-09 7.200255e-07
  outer loop
    vertex 0.0073172017 0.016420254 0.0067997724
    vertex 0.009127391 0.015738355 0.006808864
    vertex 0.0065662125 0.017100915 0.0067997724
  endloop
endfacet
facet normal -5.4892255e-09 -7.4013444e-09 6.1176524e-07
  outer loop
    vertex 0.0065662125 0.017100915 0.0067997724
    vertex 0.003573495 0.020071944 0.006808864
    vertex 0.005752124 0.017704686 0.0067997724
  endloop
endfacet
facet normal -4.7373563e-09 -7.903745e-09 9.227516e-07
  outer loop
    vertex 0.005752124 0.017704686 0.0067997724
    vertex 0.003573495 0.020071944 0.006808864
    vertex 0.0048827752 0.018225757 0.0067997724
  endloop
endfacet
facet normal -3.939832e-09 -8.330026e-09 1.1241664e-06
  outer loop
    vertex 0.0048827752 0.018225757 0.0067997724
    vertex 0.003573495 0.020071944 0.006808864
    vertex 0.003966539 0.018659107 0.0067997724
  endloop
endfacet
facet normal -3.104375e-09 -8.676087e-09 1.214063e-06
  outer loop
    vertex 0.003966539 0.018659107 0.0067997724
    vertex 0.003573495 0.020071944 0.006808864
    vertex 0.003012239 0.019000564 0.0067997724
  endloop
endfacet
facet normal -2.2390285e-09 -8.938591e-09 1.1915763e-06
  outer loop
    vertex 0.003012239 0.019000564 0.0067997724
    vertex 0.003573495 0.020071944 0.006808864
    vertex 0.0020290655 0.019246839 0.0067997724
  endloop
endfacet
facet normal -1.3521249e-09 -9.115011e-09 1.0569245e-06
  outer loop
    vertex 0.0020290655 0.019246839 0.0067997724
    vertex 0.003573495 0.020071944 0.006808864
    vertex 0.0010264873 0.019395562 0.0067997724
  endloop
endfacet
facet normal 2.1958628e-09 -6.400805e-08 3.5521357e-06
  outer loop
    vertex -0.003466878 0.019830417 0.006808864
    vertex 1.4121761e-05 0.019445298 0.0067997724
    vertex 0.003573495 0.020071944 0.006808864
  endloop
endfacet
facet normal 4.521477e-10 -9.203672e-09 5.629865e-07
  outer loop
    vertex 1.4121761e-05 0.019445298 0.0067997724
    vertex -0.003466878 0.019830417 0.006808864
    vertex -0.0009982084 0.019395566 0.0067997724
  endloop
endfacet
facet normal -6.0196655e-08 2.1868209e-08 3.6157048e-06
  outer loop
    vertex 0.009127391 0.0024960553 0.006808864
    vertex 0.011532718 0.009117206 0.006808864
    vertex 0.009897491 0.006119119 0.0067997724
  endloop
endfacet
facet normal 7.9037745e-09 4.737348e-09 1.1736262e-06
  outer loop
    vertex -0.009304588 0.0023468407 0.006808864
    vertex -0.008573372 0.0033792201 0.0067997724
    vertex -0.009094442 0.004248572 0.0067997724
  endloop
endfacet
facet normal -9.203653e-09 4.521477e-10 1.2051795e-06
  outer loop
    vertex 0.010342215 0.0091172 0.0067997724
    vertex 0.010292483 0.008104872 0.0067997724
    vertex 0.011532718 0.009117206 0.006808864
  endloop
endfacet
facet normal 8.330055e-09 3.9398236e-09 1.016657e-06
  outer loop
    vertex -0.009304588 0.0023468407 0.006808864
    vertex -0.009094442 0.004248572 0.0067997724
    vertex -0.009527791 0.0051648114 0.0067997724
  endloop
endfacet
facet normal -3.9399144e-08 5.0493636e-08 3.531577e-06
  outer loop
    vertex 0.003573495 -0.0018375348 0.006808864
    vertex 0.009127391 0.0024960553 0.006808864
    vertex 0.006566203 0.0011334876 0.0067997724
  endloop
endfacet
facet normal -6.827684e-09 -6.188238e-09 8.952954e-07
  outer loop
    vertex 0.0073172017 0.016420254 0.0067997724
    vertex 0.007997858 0.015669264 0.0067997724
    vertex 0.009127391 0.015738355 0.006808864
  endloop
endfacet
facet normal -3.104375e-09 8.676113e-09 1.214066e-06
  outer loop
    vertex 0.003966521 -0.00042470545 0.0067997724
    vertex 0.003012218 -0.00076616183 0.0067997724
    vertex 0.003573495 -0.0018375348 0.006808864
  endloop
endfacet
facet normal -6.188272e-09 6.827697e-09 7.200213e-07
  outer loop
    vertex 0.007317195 0.0018141479 0.0067997724
    vertex 0.006566203 0.0011334876 0.0067997724
    vertex 0.009127391 0.0024960553 0.006808864
  endloop
endfacet
facet normal 8.676114e-09 3.1043665e-09 7.492077e-07
  outer loop
    vertex -0.009304588 0.0023468407 0.006808864
    vertex -0.009527791 0.0051648114 0.0067997724
    vertex -0.009869247 0.0061191143 0.0067997724
  endloop
endfacet
facet normal 4.7373305e-09 7.903778e-09 6.7195333e-07
  outer loop
    vertex -0.003466878 -0.0015960066 0.006808864
    vertex -0.0048545026 8.637086e-06 0.0067997724
    vertex -0.005723855 0.00052970555 0.0067997724
  endloop
endfacet
facet normal -3.9399133e-08 -5.0493636e-08 3.531576e-06
  outer loop
    vertex 0.009127391 0.015738355 0.006808864
    vertex 0.003573495 0.020071944 0.006808864
    vertex 0.0065662125 0.017100915 0.0067997724
  endloop
endfacet
facet normal 5.3536455e-09 -1.5605487e-07 -3.5521302e-06
  outer loop
    vertex 0.0034951214 -0.0015960066 2.216571e-05
    vertex -0.0035452517 -0.0018375348 2.216571e-05
    vertex 1.4130051e-05 -0.0012108888 0.0
  endloop
endfacet
facet normal -1.3382969e-08 1.8044926e-08 -6.1177934e-07
  outer loop
    vertex -0.0035452517 0.020071944 2.216571e-05
    vertex -0.0057238596 0.0177047 0.0
    vertex -0.0065379515 0.01710093 0.0
  endloop
endfacet
facet normal -2.1152802e-08 -7.568603e-09 -5.02205e-07
  outer loop
    vertex -0.009869247 0.0061191143 0.0
    vertex -0.009527791 0.0051648114 0.0
    vertex -0.009099147 0.0024960553 2.216571e-05
  endloop
endfacet
facet normal 9.60551e-09 2.0309024e-08 -8.689072e-07
  outer loop
    vertex 0.0048827752 0.018225757 0.0
    vertex 0.003966539 0.018659107 0.0
    vertex 0.0034951214 0.019830417 2.216571e-05
  endloop
endfacet
facet normal 1.1549915e-08 1.926973e-08 -6.71942e-07
  outer loop
    vertex 0.0048827752 0.018225757 0.0
    vertex 0.0034951214 0.019830417 2.216571e-05
    vertex 0.005752124 0.017704686 0.0
  endloop
endfacet
facet normal 8.739601e-08 1.2939698e-07 -3.5103822e-06
  outer loop
    vertex 0.0034951214 0.019830417 2.216571e-05
    vertex 0.009332831 0.01588757 2.216571e-05
    vertex 0.005752124 0.017704686 0.0
  endloop
endfacet
facet normal 8.739601e-08 -1.2939698e-07 -3.5103758e-06
  outer loop
    vertex 0.009332831 0.0023468407 2.216571e-05
    vertex 0.0034951214 -0.0015960066 2.216571e-05
    vertex 0.005752112 0.00052971486 0.0
  endloop
endfacet
facet normal 1.664624e-08 1.5087238e-08 -1.1511431e-06
  outer loop
    vertex 0.007997858 0.015669264 0.0
    vertex 0.0073172017 0.016420254 0.0
    vertex 0.009332831 0.01588757 2.216571e-05
  endloop
endfacet
facet normal 1.8044915e-08 1.3382968e-08 -1.218596e-06
  outer loop
    vertex 0.007997858 0.015669264 0.0
    vertex 0.009332831 0.01588757 2.216571e-05
    vertex 0.008601627 0.0148551725 0.0
  endloop
endfacet
facet normal 1.9269791e-08 1.1549811e-08 -1.1736207e-06
  outer loop
    vertex 0.008601627 0.0148551725 0.0
    vertex 0.009332831 0.01588757 2.216571e-05
    vertex 0.009122694 0.013985821 0.0
  endloop
endfacet
facet normal 2.0309065e-08 9.605448e-09 -1.016653e-06
  outer loop
    vertex 0.009122694 0.013985821 0.0
    vertex 0.009332831 0.01588757 2.216571e-05
    vertex 0.009556041 0.013069583 0.0
  endloop
endfacet
facet normal 1.5006995e-07 4.3132314e-08 -3.5175335e-06
  outer loop
    vertex 0.011278734 0.009117205 2.216571e-05
    vertex 0.009897494 0.012115281 0.0
    vertex 0.009332831 0.01588757 2.216571e-05
  endloop
endfacet
facet normal 2.1792749e-08 5.4587823e-09 -6.196583e-07
  outer loop
    vertex 0.009897494 0.012115281 0.0
    vertex 0.011278734 0.009117205 2.216571e-05
    vertex 0.010143765 0.011132107 0.0
  endloop
endfacet
facet normal 2.2222876e-08 3.2964456e-09 -8.3824267e-07
  outer loop
    vertex 0.010143765 0.011132107 0.0
    vertex 0.011278734 0.009117205 2.216571e-05
    vertex 0.0102924835 0.010129528 0.0
  endloop
endfacet
facet normal 2.2438972e-08 1.1023383e-09 -9.4806416e-07
  outer loop
    vertex 0.0102924835 0.010129528 0.0
    vertex 0.011278734 0.009117205 2.216571e-05
    vertex 0.010342215 0.0091172 0.0
  endloop
endfacet
facet normal 1.508733e-08 1.6646212e-08 -9.719193e-07
  outer loop
    vertex 0.009332831 0.01588757 2.216571e-05
    vertex 0.0073172017 0.016420254 0.0
    vertex 0.0065662125 0.017100915 0.0
  endloop
endfacet
facet normal 2.2222876e-08 -3.2964662e-09 -8.3824125e-07
  outer loop
    vertex 0.010292483 0.008104872 0.0
    vertex 0.011278734 0.009117205 2.216571e-05
    vertex 0.010143763 0.007102293 0.0
  endloop
endfacet
facet normal 2.1792749e-08 -5.458803e-09 -6.1965596e-07
  outer loop
    vertex 0.010143763 0.007102293 0.0
    vertex 0.011278734 0.009117205 2.216571e-05
    vertex 0.009897491 0.006119119 0.0
  endloop
endfacet
facet normal 2.1152772e-08 -7.568561e-09 -7.492021e-07
  outer loop
    vertex 0.009897491 0.006119119 0.0
    vertex 0.009332831 0.0023468407 2.216571e-05
    vertex 0.009556037 0.0051648174 0.0
  endloop
endfacet
facet normal 7.568623e-09 -2.1152802e-08 -9.568137e-07
  outer loop
    vertex 0.003012218 -0.00076616183 0.0
    vertex 0.003966521 -0.00042470545 0.0
    vertex 0.0034951214 -0.0015960066 2.216571e-05
  endloop
endfacet
facet normal 1.9269772e-08 -1.1549832e-08 -1.1736215e-06
  outer loop
    vertex 0.009122689 0.00424858 0.0
    vertex 0.009332831 0.0023468407 2.216571e-05
    vertex 0.008601622 0.0033792295 0.0
  endloop
endfacet
facet normal 1.8044894e-08 -1.3382989e-08 -1.2185958e-06
  outer loop
    vertex 0.008601622 0.0033792295 0.0
    vertex 0.009332831 0.0023468407 2.216571e-05
    vertex 0.007997852 0.002565139 0.0
  endloop
endfacet
facet normal 1.664625e-08 -1.5087238e-08 -1.1511436e-06
  outer loop
    vertex 0.007997852 0.002565139 0.0
    vertex 0.009332831 0.0023468407 2.216571e-05
    vertex 0.007317195 0.0018141479 0.0
  endloop
endfacet
facet normal 1.508732e-08 -1.664627e-08 -9.719155e-07
  outer loop
    vertex 0.007317195 0.0018141479 0.0
    vertex 0.009332831 0.0023468407 2.216571e-05
    vertex 0.006566203 0.0011334876 0.0
  endloop
endfacet
facet normal 1.338305e-08 -1.8044915e-08 -6.82634e-07
  outer loop
    vertex 0.006566203 0.0011334876 0.0
    vertex 0.009332831 0.0023468407 2.216571e-05
    vertex 0.005752112 0.00052971486 0.0
  endloop
endfacet
facet normal 1.1549915e-08 -1.9269791e-08 -6.7194617e-07
  outer loop
    vertex 0.005752112 0.00052971486 0.0
    vertex 0.0034951214 -0.0015960066 2.216571e-05
    vertex 0.0048827603 8.643605e-06 0.0
  endloop
endfacet
facet normal 9.60549e-09 -2.0309095e-08 -8.689116e-07
  outer loop
    vertex 0.0048827603 8.643605e-06 0.0
    vertex 0.0034951214 -0.0015960066 2.216571e-05
    vertex 0.003966521 -0.00042470545 0.0
  endloop
endfacet
facet normal 1.1024417e-09 2.2439806e-08 -5.6301315e-07
  outer loop
    vertex 0.0034951214 0.019830417 2.216571e-05
    vertex 0.0010264873 0.019395562 0.0
    vertex 1.4121761e-05 0.019445298 0.0
  endloop
endfacet
facet normal 5.4588445e-09 -2.17928e-08 -9.348103e-07
  outer loop
    vertex 0.003012218 -0.00076616183 0.0
    vertex 0.0034951214 -0.0015960066 2.216571e-05
    vertex 0.0020290418 -0.0010124361 0.0
  endloop
endfacet
facet normal 3.2964662e-09 -2.2222924e-08 -8.031109e-07
  outer loop
    vertex 0.0020290418 -0.0010124361 0.0
    vertex 0.0034951214 -0.0015960066 2.216571e-05
    vertex 0.0010264606 -0.0011611553 0.0
  endloop
endfacet
facet normal 1.1023796e-09 -2.2439025e-08 -5.6298853e-07
  outer loop
    vertex 0.0010264606 -0.0011611553 0.0
    vertex 0.0034951214 -0.0015960066 2.216571e-05
    vertex 1.4130051e-05 -0.0012108888 0.0
  endloop
endfacet
facet normal -1.1023383e-09 -2.2439028e-08 -8.1138705e-07
  outer loop
    vertex 1.4130051e-05 -0.0012108888 0.0
    vertex -0.0035452517 -0.0018375348 2.216571e-05
    vertex -0.0009982006 -0.0011611572 0.0
  endloop
endfacet
facet normal -3.2964456e-09 -2.2222933e-08 -1.0569167e-06
  outer loop
    vertex -0.0009982006 -0.0011611572 0.0
    vertex -0.0035452517 -0.0018375348 2.216571e-05
    vertex -0.0020007822 -0.0010124389 0.0
  endloop
endfacet
facet normal -5.458803e-09 -2.1792811e-08 -1.1915754e-06
  outer loop
    vertex -0.0020007822 -0.0010124389 0.0
    vertex -0.0035452517 -0.0018375348 2.216571e-05
    vertex -0.002983959 -0.0007661665 0.0
  endloop
endfacet
facet normal -7.568582e-09 -2.1152813e-08 -1.2140665e-06
  outer loop
    vertex -0.002983959 -0.0007661665 0.0
    vertex -0.0035452517 -0.0018375348 2.216571e-05
    vertex -0.0039382624 -0.00042471197 0.0
  endloop
endfacet
facet normal -1.1549915e-08 1.9269791e-08 -9.2275786e-07
  outer loop
    vertex -0.0035452517 0.020071944 2.216571e-05
    vertex -0.004854508 0.01822577 0.0
    vertex -0.0057238596 0.0177047 0.0
  endloop
endfacet
facet normal -1.1549853e-08 -1.9269812e-08 -9.2276457e-07
  outer loop
    vertex -0.0048545026 8.637086e-06 0.0
    vertex -0.0035452517 -0.0018375348 2.216571e-05
    vertex -0.005723855 0.00052970555 0.0
  endloop
endfacet
facet normal -1.338303e-08 -1.8044934e-08 -6.11773e-07
  outer loop
    vertex -0.005723855 0.00052970555 0.0
    vertex -0.0035452517 -0.0018375348 2.216571e-05
    vertex -0.0065379473 0.0011334773 0.0
  endloop
endfacet
facet normal -1.508729e-08 -1.664627e-08 -7.2001865e-07
  outer loop
    vertex -0.0065379473 0.0011334773 0.0
    vertex -0.009099147 0.0024960553 2.216571e-05
    vertex -0.0072889393 0.0018141363 0.0
  endloop
endfacet
facet normal -1.664626e-08 -1.508733e-08 -8.952952e-07
  outer loop
    vertex -0.0072889393 0.0018141363 0.0
    vertex -0.009099147 0.0024960553 2.216571e-05
    vertex -0.0079696 0.0025651278 0.0
  endloop
endfacet
facet normal -1.8044934e-08 -1.338303e-08 -9.612597e-07
  outer loop
    vertex -0.0079696 0.0025651278 0.0
    vertex -0.009099147 0.0024960553 2.216571e-05
    vertex -0.008573372 0.0033792201 0.0
  endloop
endfacet
facet normal -1.9269802e-08 -1.15498935e-08 -9.172748e-07
  outer loop
    vertex -0.008573372 0.0033792201 0.0
    vertex -0.009099147 0.0024960553 2.216571e-05
    vertex -0.009094442 0.004248572 0.0
  endloop
endfacet
facet normal -2.0309095e-08 -9.60549e-09 -7.637624e-07
  outer loop
    vertex -0.009094442 0.004248572 0.0
    vertex -0.009099147 0.0024960553 2.216571e-05
    vertex -0.009527791 0.0051648114 0.0
  endloop
endfacet
facet normal -1.467625e-07 -5.3315798e-08 -3.6157003e-06
  outer loop
    vertex -0.011504475 0.009117206 2.216571e-05
    vertex -0.009869247 0.0061191143 0.0
    vertex -0.009099147 0.0024960553 2.216571e-05
  endloop
endfacet
facet normal -2.1792811e-08 -5.4588236e-09 -8.693685e-07
  outer loop
    vertex -0.009869247 0.0061191143 0.0
    vertex -0.011504475 0.009117206 2.216571e-05
    vertex -0.01011552 0.007102291 0.0
  endloop
endfacet
facet normal -2.2222917e-08 -3.2964662e-09 -1.0928832e-06
  outer loop
    vertex -0.01011552 0.007102291 0.0
    vertex -0.011504475 0.009117206 2.216571e-05
    vertex -0.010264239 0.008104872 0.0
  endloop
endfacet
facet normal -2.2439032e-08 -1.102359e-09 -1.2051829e-06
  outer loop
    vertex -0.010264239 0.008104872 0.0
    vertex -0.011504475 0.009117206 2.216571e-05
    vertex -0.010313972 0.009117203 0.0
  endloop
endfacet
facet normal -2.2439032e-08 1.102359e-09 -1.2051831e-06
  outer loop
    vertex -0.010313972 0.009117203 0.0
    vertex -0.011504475 0.009117206 2.216571e-05
    vertex -0.010264239 0.010129534 0.0
  endloop
endfacet
facet normal -2.2222917e-08 3.2964456e-09 -1.092885e-06
  outer loop
    vertex -0.010264239 0.010129534 0.0
    vertex -0.011504475 0.009117206 2.216571e-05
    vertex -0.010115521 0.011132115 0.0
  endloop
endfacet
facet normal -2.1792811e-08 5.4588236e-09 -8.6936893e-07
  outer loop
    vertex -0.010115521 0.011132115 0.0
    vertex -0.011504475 0.009117206 2.216571e-05
    vertex -0.009869248 0.012115291 0.0
  endloop
endfacet
facet normal -1.4676247e-07 5.3315798e-08 -3.6157057e-06
  outer loop
    vertex -0.011504475 0.009117206 2.216571e-05
    vertex -0.009099147 0.015738355 2.216571e-05
    vertex -0.009869248 0.012115291 0.0
  endloop
endfacet
facet normal -2.0309127e-08 9.60549e-09 -7.6376296e-07
  outer loop
    vertex -0.009094443 0.013985835 0.0
    vertex -0.009527792 0.013069594 0.0
    vertex -0.009099147 0.015738355 2.216571e-05
  endloop
endfacet
facet normal -1.9269812e-08 1.1549873e-08 -9.1727406e-07
  outer loop
    vertex -0.009094443 0.013985835 0.0
    vertex -0.009099147 0.015738355 2.216571e-05
    vertex -0.008573374 0.014855187 0.0
  endloop
endfacet
facet normal -1.8044915e-08 1.338303e-08 -9.612594e-07
  outer loop
    vertex -0.008573374 0.014855187 0.0
    vertex -0.009099147 0.015738355 2.216571e-05
    vertex -0.007969602 0.015669279 0.0
  endloop
endfacet
facet normal -1.664628e-08 1.508729e-08 -8.952973e-07
  outer loop
    vertex -0.007969602 0.015669279 0.0
    vertex -0.009099147 0.015738355 2.216571e-05
    vertex -0.007288943 0.016420271 0.0
  endloop
endfacet
facet normal -1.508729e-08 1.664626e-08 -7.2001836e-07
  outer loop
    vertex -0.007288943 0.016420271 0.0
    vertex -0.009099147 0.015738355 2.216571e-05
    vertex -0.0065379515 0.01710093 0.0
  endloop
endfacet
facet normal -9.6057086e-08 1.2310603e-07 -3.5315697e-06
  outer loop
    vertex -0.009099147 0.015738355 2.216571e-05
    vertex -0.0035452517 0.020071944 2.216571e-05
    vertex -0.0065379515 0.01710093 0.0
  endloop
endfacet
facet normal -9.60571e-08 -1.2310603e-07 -3.5315752e-06
  outer loop
    vertex -0.0035452517 -0.0018375348 2.216571e-05
    vertex -0.009099147 0.0024960553 2.216571e-05
    vertex -0.0065379473 0.0011334773 0.0
  endloop
endfacet
facet normal -7.568623e-09 2.1152813e-08 -1.2140662e-06
  outer loop
    vertex -0.0029839654 0.019000575 0.0
    vertex -0.003938269 0.018659119 0.0
    vertex -0.0035452517 0.020071944 2.216571e-05
  endloop
endfacet
facet normal -5.4587823e-09 2.17928e-08 -1.1915736e-06
  outer loop
    vertex -0.0029839654 0.019000575 0.0
    vertex -0.0035452517 0.020071944 2.216571e-05
    vertex -0.0020007892 0.019246846 0.0
  endloop
endfacet
facet normal -3.2964662e-09 2.2222913e-08 -1.0569183e-06
  outer loop
    vertex -0.0020007892 0.019246846 0.0
    vertex -0.0035452517 0.020071944 2.216571e-05
    vertex -0.0009982084 0.019395566 0.0
  endloop
endfacet
facet normal -1.102359e-09 2.2439018e-08 -8.1138967e-07
  outer loop
    vertex -0.0009982084 0.019395566 0.0
    vertex -0.0035452517 0.020071944 2.216571e-05
    vertex 1.4121761e-05 0.019445298 0.0
  endloop
endfacet
facet normal 7.568623e-09 2.115274e-08 -9.568122e-07
  outer loop
    vertex 0.0034951214 0.019830417 2.216571e-05
    vertex 0.003966539 0.018659107 0.0
    vertex 0.003012239 0.019000564 0.0
  endloop
endfacet
facet normal 3.2965488e-09 2.2222853e-08 -8.0311844e-07
  outer loop
    vertex 0.0034951214 0.019830417 2.216571e-05
    vertex 0.0020290655 0.019246839 0.0
    vertex 0.0010264873 0.019395562 0.0
  endloop
endfacet
facet normal 1.5006992e-07 -4.3132314e-08 -3.5175326e-06
  outer loop
    vertex 0.011278734 0.009117205 2.216571e-05
    vertex 0.009332831 0.0023468407 2.216571e-05
    vertex 0.009897491 0.006119119 0.0
  endloop
endfacet
facet normal 5.4588645e-09 2.179274e-08 -9.3481157e-07
  outer loop
    vertex 0.0034951214 0.019830417 2.216571e-05
    vertex 0.003012239 0.019000564 0.0
    vertex 0.0020290655 0.019246839 0.0
  endloop
endfacet
facet normal 1.33830085e-08 1.8044851e-08 -6.826326e-07
  outer loop
    vertex 0.009332831 0.01588757 2.216571e-05
    vertex 0.0065662125 0.017100915 0.0
    vertex 0.005752124 0.017704686 0.0
  endloop
endfacet
facet normal -9.60549e-09 -2.0309116e-08 -1.1241743e-06
  outer loop
    vertex -0.0048545026 8.637086e-06 0.0
    vertex -0.0039382624 -0.00042471197 0.0
    vertex -0.0035452517 -0.0018375348 2.216571e-05
  endloop
endfacet
facet normal -9.605468e-09 2.0309095e-08 -1.1241732e-06
  outer loop
    vertex -0.0035452517 0.020071944 2.216571e-05
    vertex -0.003938269 0.018659119 0.0
    vertex -0.004854508 0.01822577 0.0
  endloop
endfacet
facet normal -2.11528e-08 7.5686035e-09 -5.022057e-07
  outer loop
    vertex -0.009099147 0.015738355 2.216571e-05
    vertex -0.009527792 0.013069594 0.0
    vertex -0.009869248 0.012115291 0.0
  endloop
endfacet
facet normal 2.1152783e-08 7.5685405e-09 -7.491992e-07
  outer loop
    vertex 0.009897494 0.012115281 0.0
    vertex 0.009556041 0.013069583 0.0
    vertex 0.009332831 0.01588757 2.216571e-05
  endloop
endfacet
facet normal 2.2438972e-08 -1.102359e-09 -9.4806364e-07
  outer loop
    vertex 0.010292483 0.008104872 0.0
    vertex 0.010342215 0.0091172 0.0
    vertex 0.011278734 0.009117205 2.216571e-05
  endloop
endfacet
facet normal 2.0309054e-08 -9.605468e-09 -1.0166549e-06
  outer loop
    vertex 0.009122689 0.00424858 0.0
    vertex 0.009556037 0.0051648174 0.0
    vertex 0.009332831 0.0023468407 2.216571e-05
  endloop
endfacet
facet normal 1.0112566e-06 -6.817321e-06 0.0
  outer loop
    vertex -0.0009982084 0.019395566 0.0
    vertex -0.0009982084 0.019395566 0.0067997724
    vertex -0.0020007892 0.019246846 0.0067997724
  endloop
endfacet
facet normal 1.0112566e-06 -6.817321e-06 0.0
  outer loop
    vertex -0.0020007892 0.019246846 0.0067997724
    vertex -0.0020007892 0.019246846 0.0
    vertex -0.0009982084 0.019395566 0.0
  endloop
endfacet
facet normal 1.6745901e-06 -6.685375e-06 0.0
  outer loop
    vertex -0.0020007892 0.019246846 0.0
    vertex -0.0020007892 0.019246846 0.0067997724
    vertex -0.0029839654 0.019000575 0.0067997724
  endloop
endfacet
facet normal 1.6745901e-06 -6.685375e-06 0.0
  outer loop
    vertex -0.0029839654 0.019000575 0.0067997724
    vertex -0.0029839654 0.019000575 0.0
    vertex -0.0020007892 0.019246846 0.0
  endloop
endfacet
facet normal 2.3218256e-06 -6.489046e-06 0.0
  outer loop
    vertex -0.0029839654 0.019000575 0.0
    vertex -0.0029839654 0.019000575 0.0067997724
    vertex -0.003938269 0.018659119 0.0067997724
  endloop
endfacet
facet normal 2.3218256e-06 -6.489046e-06 0.0
  outer loop
    vertex -0.003938269 0.018659119 0.0067997724
    vertex -0.003938269 0.018659119 0.0
    vertex -0.0029839654 0.019000575 0.0
  endloop
endfacet
facet normal 2.9466685e-06 -6.230219e-06 0.0
  outer loop
    vertex -0.003938269 0.018659119 0.0
    vertex -0.003938269 0.018659119 0.0067997724
    vertex -0.004854508 0.01822577 0.0067997724
  endloop
endfacet
facet normal 2.9466685e-06 -6.230219e-06 0.0
  outer loop
    vertex -0.004854508 0.01822577 0.0067997724
    vertex -0.004854508 0.01822577 0.0
    vertex -0.003938269 0.018659119 0.0
  endloop
endfacet
facet normal 3.543166e-06 -5.911392e-06 0.0
  outer loop
    vertex -0.004854508 0.01822577 0.0
    vertex -0.004854508 0.01822577 0.0067997724
    vertex -0.0057238596 0.0177047 0.0067997724
  endloop
endfacet
facet normal 3.543166e-06 -5.911392e-06 0.0
  outer loop
    vertex -0.0057238596 0.0177047 0.0067997724
    vertex -0.0057238596 0.0177047 0.0
    vertex -0.004854508 0.01822577 0.0
  endloop
endfacet
facet normal 4.1054914e-06 -5.5356395e-06 0.0
  outer loop
    vertex -0.0057238596 0.0177047 0.0
    vertex -0.0057238596 0.0177047 0.0067997724
    vertex -0.0065379515 0.01710093 0.0067997724
  endloop
endfacet
facet normal 4.1054914e-06 -5.5356395e-06 0.0
  outer loop
    vertex -0.0065379515 0.01710093 0.0067997724
    vertex -0.0065379515 0.01710093 0.0
    vertex -0.0057238596 0.0177047 0.0
  endloop
endfacet
facet normal 4.628326e-06 -5.1065713e-06 0.0
  outer loop
    vertex -0.0065379515 0.01710093 0.0
    vertex -0.0065379515 0.01710093 0.0067997724
    vertex -0.007288943 0.016420271 0.0067997724
  endloop
endfacet
facet normal 4.628326e-06 -5.1065713e-06 0.0
  outer loop
    vertex -0.007288943 0.016420271 0.0067997724
    vertex -0.007288943 0.016420271 0.0
    vertex -0.0065379515 0.01710093 0.0
  endloop
endfacet
facet normal 5.1065776e-06 -4.628326e-06 0.0
  outer loop
    vertex -0.007288943 0.016420271 0.0
    vertex -0.007288943 0.016420271 0.0067997724
    vertex -0.007969602 0.015669279 0.0067997724
  endloop
endfacet
facet normal 5.1065776e-06 -4.628326e-06 0.0
  outer loop
    vertex -0.007969602 0.015669279 0.0067997724
    vertex -0.007969602 0.015669279 0.0
    vertex -0.007288943 0.016420271 0.0
  endloop
endfacet
facet normal 5.5356363e-06 -4.1055105e-06 0.0
  outer loop
    vertex -0.007969602 0.015669279 0.0
    vertex -0.007969602 0.015669279 0.0067997724
    vertex -0.008573374 0.014855187 0.0067997724
  endloop
endfacet
facet normal 5.5356363e-06 -4.1055105e-06 0.0
  outer loop
    vertex -0.008573374 0.014855187 0.0067997724
    vertex -0.008573374 0.014855187 0.0
    vertex -0.007969602 0.015669279 0.0
  endloop
endfacet
facet normal 5.911398e-06 -3.5431533e-06 0.0
  outer loop
    vertex -0.008573374 0.014855187 0.0
    vertex -0.008573374 0.014855187 0.0067997724
    vertex -0.009094443 0.013985835 0.0067997724
  endloop
endfacet
facet normal 5.911398e-06 -3.5431533e-06 0.0
  outer loop
    vertex -0.009094443 0.013985835 0.0067997724
    vertex -0.009094443 0.013985835 0.0
    vertex -0.008573374 0.014855187 0.0
  endloop
endfacet
facet normal 6.2302283e-06 -2.9466748e-06 0.0
  outer loop
    vertex -0.009094443 0.013985835 0.0
    vertex -0.009094443 0.013985835 0.0067997724
    vertex -0.009527792 0.013069594 0.0067997724
  endloop
endfacet
facet normal 6.2302283e-06 -2.9466748e-06 0.0
  outer loop
    vertex -0.009527792 0.013069594 0.0067997724
    vertex -0.009527792 0.013069594 0.0
    vertex -0.009094443 0.013985835 0.0
  endloop
endfacet
facet normal 6.489043e-06 -2.3218195e-06 0.0
  outer loop
    vertex -0.009527792 0.013069594 0.0
    vertex -0.009527792 0.013069594 0.0067997724
    vertex -0.009869248 0.012115291 0.0067997724
  endloop
endfacet
facet normal 6.489043e-06 -2.3218195e-06 0.0
  outer loop
    vertex -0.009869248 0.012115291 0.0067997724
    vertex -0.009869248 0.012115291 0.0
    vertex -0.009527792 0.013069594 0.0
  endloop
endfacet
facet normal 6.685378e-06 -1.6746028e-06 0.0
  outer loop
    vertex -0.009869248 0.012115291 0.0
    vertex -0.009869248 0.012115291 0.0067997724
    vertex -0.010115521 0.011132115 0.0067997724
  endloop
endfacet
facet normal 6.685378e-06 -1.6746028e-06 0.0
  outer loop
    vertex -0.010115521 0.011132115 0.0067997724
    vertex -0.010115521 0.011132115 0.0
    vertex -0.009869248 0.012115291 0.0
  endloop
endfacet
facet normal 6.8173217e-06 -1.0112502e-06 0.0
  outer loop
    vertex -0.010115521 0.011132115 0.0
    vertex -0.010115521 0.011132115 0.0067997724
    vertex -0.010264239 0.010129534 0.0067997724
  endloop
endfacet
facet normal 6.8173217e-06 -1.0112502e-06 0.0
  outer loop
    vertex -0.010264239 0.010129534 0.0067997724
    vertex -0.010264239 0.010129534 0.0
    vertex -0.010115521 0.011132115 0.0
  endloop
endfacet
facet normal 6.8836193e-06 -3.3817054e-07 0.0
  outer loop
    vertex -0.010264239 0.010129534 0.0
    vertex -0.010264239 0.010129534 0.0067997724
    vertex -0.010313972 0.009117203 0.0067997724
  endloop
endfacet
facet normal 6.8836193e-06 -3.3817054e-07 0.0
  outer loop
    vertex -0.010313972 0.009117203 0.0067997724
    vertex -0.010313972 0.009117203 0.0
    vertex -0.010264239 0.010129534 0.0
  endloop
endfacet
facet normal 6.8836193e-06 3.3817054e-07 -0.0
  outer loop
    vertex -0.010313972 0.009117203 0.0
    vertex -0.010313972 0.009117203 0.0067997724
    vertex -0.010264239 0.008104872 0.0067997724
  endloop
endfacet
facet normal 6.8836193e-06 3.3817054e-07 0.0
  outer loop
    vertex -0.010264239 0.008104872 0.0067997724
    vertex -0.010264239 0.008104872 0.0
    vertex -0.010313972 0.009117203 0.0
  endloop
endfacet
facet normal 6.8173217e-06 1.0112566e-06 -0.0
  outer loop
    vertex -0.010264239 0.008104872 0.0
    vertex -0.010264239 0.008104872 0.0067997724
    vertex -0.01011552 0.007102291 0.0067997724
  endloop
endfacet
facet normal 6.8173217e-06 1.0112566e-06 0.0
  outer loop
    vertex -0.01011552 0.007102291 0.0067997724
    vertex -0.01011552 0.007102291 0.0
    vertex -0.010264239 0.008104872 0.0
  endloop
endfacet
facet normal 6.685378e-06 1.6746028e-06 -0.0
  outer loop
    vertex -0.01011552 0.007102291 0.0
    vertex -0.01011552 0.007102291 0.0067997724
    vertex -0.009869247 0.0061191143 0.0067997724
  endloop
endfacet
facet normal 6.685378e-06 1.6746028e-06 0.0
  outer loop
    vertex -0.009869247 0.0061191143 0.0067997724
    vertex -0.009869247 0.0061191143 0.0
    vertex -0.01011552 0.007102291 0.0
  endloop
endfacet
facet normal 6.489043e-06 2.3218195e-06 -0.0
  outer loop
    vertex -0.009869247 0.0061191143 0.0
    vertex -0.009869247 0.0061191143 0.0067997724
    vertex -0.009527791 0.0051648114 0.0067997724
  endloop
endfacet
facet normal 6.489043e-06 2.3218195e-06 0.0
  outer loop
    vertex -0.009527791 0.0051648114 0.0067997724
    vertex -0.009527791 0.0051648114 0.0
    vertex -0.009869247 0.0061191143 0.0
  endloop
endfacet
facet normal 6.230219e-06 2.9466748e-06 -0.0
  outer loop
    vertex -0.009527791 0.0051648114 0.0
    vertex -0.009527791 0.0051648114 0.0067997724
    vertex -0.009094442 0.004248572 0.0067997724
  endloop
endfacet
facet normal 6.230219e-06 2.9466748e-06 0.0
  outer loop
    vertex -0.009094442 0.004248572 0.0067997724
    vertex -0.009094442 0.004248572 0.0
    vertex -0.009527791 0.0051648114 0.0
  endloop
endfacet
facet normal 5.911395e-06 3.5431597e-06 -0.0
  outer loop
    vertex -0.009094442 0.004248572 0.0
    vertex -0.009094442 0.004248572 0.0067997724
    vertex -0.008573372 0.0033792201 0.0067997724
  endloop
endfacet
facet normal 5.911395e-06 3.5431597e-06 0.0
  outer loop
    vertex -0.008573372 0.0033792201 0.0067997724
    vertex -0.008573372 0.0033792201 0.0
    vertex -0.009094442 0.004248572 0.0
  endloop
endfacet
facet normal 5.5356427e-06 4.1055105e-06 -0.0
  outer loop
    vertex -0.008573372 0.0033792201 0.0
    vertex -0.008573372 0.0033792201 0.0067997724
    vertex -0.0079696 0.0025651278 0.0067997724
  endloop
endfacet
facet normal 5.5356427e-06 4.1055105e-06 0.0
  outer loop
    vertex -0.0079696 0.0025651278 0.0067997724
    vertex -0.0079696 0.0025651278 0.0
    vertex -0.008573372 0.0033792201 0.0
  endloop
endfacet
facet normal 5.1065713e-06 4.6283385e-06 -0.0
  outer loop
    vertex -0.0079696 0.0025651278 0.0
    vertex -0.0079696 0.0025651278 0.0067997724
    vertex -0.0072889393 0.0018141363 0.0067997724
  endloop
endfacet
facet normal 5.1065713e-06 4.6283385e-06 0.0
  outer loop
    vertex -0.0072889393 0.0018141363 0.0067997724
    vertex -0.0072889393 0.0018141363 0.0
    vertex -0.0079696 0.0025651278 0.0
  endloop
endfacet
facet normal 4.628326e-06 5.1065745e-06 -0.0
  outer loop
    vertex -0.0072889393 0.0018141363 0.0
    vertex -0.0072889393 0.0018141363 0.0067997724
    vertex -0.0065379473 0.0011334773 0.0067997724
  endloop
endfacet
facet normal 4.628326e-06 5.1065745e-06 0.0
  outer loop
    vertex -0.0065379473 0.0011334773 0.0067997724
    vertex -0.0065379473 0.0011334773 0.0
    vertex -0.0072889393 0.0018141363 0.0
  endloop
endfacet
facet normal 4.1055105e-06 5.5356427e-06 -0.0
  outer loop
    vertex -0.0065379473 0.0011334773 0.0
    vertex -0.0065379473 0.0011334773 0.0067997724
    vertex -0.005723855 0.00052970555 0.0067997724
  endloop
endfacet
facet normal 4.1055105e-06 5.5356427e-06 0.0
  outer loop
    vertex -0.005723855 0.00052970555 0.0067997724
    vertex -0.005723855 0.00052970555 0.0
    vertex -0.0065379473 0.0011334773 0.0
  endloop
endfacet
facet normal 3.543147e-06 5.911398e-06 -0.0
  outer loop
    vertex -0.005723855 0.00052970555 0.0
    vertex -0.005723855 0.00052970555 0.0067997724
    vertex -0.0048545026 8.637086e-06 0.0067997724
  endloop
endfacet
facet normal 3.543147e-06 5.911398e-06 0.0
  outer loop
    vertex -0.0048545026 8.637086e-06 0.0067997724
    vertex -0.0048545026 8.637086e-06 0.0
    vertex -0.005723855 0.00052970555 0.0
  endloop
endfacet
facet normal 2.9466748e-06 6.230225e-06 -0.0
  outer loop
    vertex -0.0048545026 8.637086e-06 0.0
    vertex -0.0048545026 8.637086e-06 0.0067997724
    vertex -0.0039382624 -0.00042471197 0.0067997724
  endloop
endfacet
facet normal 2.9466748e-06 6.230225e-06 0.0
  outer loop
    vertex -0.0039382624 -0.00042471197 0.0067997724
    vertex -0.0039382624 -0.00042471197 0.0
    vertex -0.0048545026 8.637086e-06 0.0
  endloop
endfacet
facet normal 2.321813e-06 6.489046e-06 -0.0
  outer loop
    vertex -0.0039382624 -0.00042471197 0.0
    vertex -0.0039382624 -0.00042471197 0.0067997724
    vertex -0.002983959 -0.0007661665 0.0067997724
  endloop
endfacet
facet normal 2.321813e-06 6.489046e-06 0.0
  outer loop
    vertex -0.002983959 -0.0007661665 0.0067997724
    vertex -0.002983959 -0.0007661665 0.0
    vertex -0.0039382624 -0.00042471197 0.0
  endloop
endfacet
facet normal 1.6745964e-06 6.685378e-06 -0.0
  outer loop
    vertex -0.002983959 -0.0007661665 0.0
    vertex -0.002983959 -0.0007661665 0.0067997724
    vertex -0.0020007822 -0.0010124389 0.0067997724
  endloop
endfacet
facet normal 1.6745964e-06 6.685378e-06 0.0
  outer loop
    vertex -0.0020007822 -0.0010124389 0.0067997724
    vertex -0.0020007822 -0.0010124389 0.0
    vertex -0.002983959 -0.0007661665 0.0
  endloop
endfacet
facet normal 1.0112502e-06 6.8173263e-06 -0.0
  outer loop
    vertex -0.0020007822 -0.0010124389 0.0
    vertex -0.0020007822 -0.0010124389 0.0067997724
    vertex -0.0009982006 -0.0011611572 0.0067997724
  endloop
endfacet
facet normal 1.0112502e-06 6.8173263e-06 0.0
  outer loop
    vertex -0.0009982006 -0.0011611572 0.0067997724
    vertex -0.0009982006 -0.0011611572 0.0
    vertex -0.0020007822 -0.0010124389 0.0
  endloop
endfacet
facet normal 3.381642e-07 6.883618e-06 -0.0
  outer loop
    vertex -0.0009982006 -0.0011611572 0.0
    vertex -0.0009982006 -0.0011611572 0.0067997724
    vertex 1.4130051e-05 -0.0012108888 0.0067997724
  endloop
endfacet
facet normal 3.381642e-07 6.883618e-06 0.0
  outer loop
    vertex 1.4130051e-05 -0.0012108888 0.0067997724
    vertex 1.4130051e-05 -0.0012108888 0.0
    vertex -0.0009982006 -0.0011611572 0.0
  endloop
endfacet
facet normal -3.3817687e-07 6.883617e-06 0.0
  outer loop
    vertex 1.4130051e-05 -0.0012108888 0.0
    vertex 1.4130051e-05 -0.0012108888 0.0067997724
    vertex 0.0010264606 -0.0011611553 0.0067997724
  endloop
endfacet
facet normal -3.3817687e-07 6.883617e-06 0.0
  outer loop
    vertex 0.0010264606 -0.0011611553 0.0067997724
    vertex 0.0010264606 -0.0011611553 0.0
    vertex 1.4130051e-05 -0.0012108888 0.0
  endloop
endfacet
facet normal -1.0112566e-06 6.817324e-06 0.0
  outer loop
    vertex 0.0010264606 -0.0011611553 0.0
    vertex 0.0010264606 -0.0011611553 0.0067997724
    vertex 0.0020290418 -0.0010124361 0.0067997724
  endloop
endfacet
facet normal -1.0112566e-06 6.817324e-06 0.0
  outer loop
    vertex 0.0020290418 -0.0010124361 0.0067997724
    vertex 0.0020290418 -0.0010124361 0.0
    vertex 0.0010264606 -0.0011611553 0.0
  endloop
endfacet
facet normal -1.674609e-06 6.685375e-06 0.0
  outer loop
    vertex 0.0020290418 -0.0010124361 0.0
    vertex 0.0020290418 -0.0010124361 0.0067997724
    vertex 0.003012218 -0.00076616183 0.0067997724
  endloop
endfacet
facet normal -1.674609e-06 6.685375e-06 0.0
  outer loop
    vertex 0.003012218 -0.00076616183 0.0067997724
    vertex 0.003012218 -0.00076616183 0.0
    vertex 0.0020290418 -0.0010124361 0.0
  endloop
endfacet
facet normal -2.3218256e-06 6.489043e-06 0.0
  outer loop
    vertex 0.003012218 -0.00076616183 0.0
    vertex 0.003012218 -0.00076616183 0.0067997724
    vertex 0.003966521 -0.00042470545 0.0067997724
  endloop
endfacet
facet normal -2.3218256e-06 6.489043e-06 0.0
  outer loop
    vertex 0.003966521 -0.00042470545 0.0067997724
    vertex 0.003966521 -0.00042470545 0.0
    vertex 0.003012218 -0.00076616183 0.0
  endloop
endfacet
facet normal -2.9466748e-06 6.230219e-06 0.0
  outer loop
    vertex 0.003966521 -0.00042470545 0.0
    vertex 0.003966521 -0.00042470545 0.0067997724
    vertex 0.0048827603 8.643605e-06 0.0067997724
  endloop
endfacet
facet normal -2.9466748e-06 6.230219e-06 0.0
  outer loop
    vertex 0.0048827603 8.643605e-06 0.0067997724
    vertex 0.0048827603 8.643605e-06 0.0
    vertex 0.003966521 -0.00042470545 0.0
  endloop
endfacet
facet normal -3.543166e-06 5.911392e-06 0.0
  outer loop
    vertex 0.0048827603 8.643605e-06 0.0
    vertex 0.0048827603 8.643605e-06 0.0067997724
    vertex 0.005752112 0.00052971486 0.0067997724
  endloop
endfacet
facet normal -3.543166e-06 5.911392e-06 0.0
  outer loop
    vertex 0.005752112 0.00052971486 0.0067997724
    vertex 0.005752112 0.00052971486 0.0
    vertex 0.0048827603 8.643605e-06 0.0
  endloop
endfacet
facet normal -4.105517e-06 5.5356363e-06 0.0
  outer loop
    vertex 0.005752112 0.00052971486 0.0
    vertex 0.005752112 0.00052971486 0.0067997724
    vertex 0.006566203 0.0011334876 0.0067997724
  endloop
endfacet
facet normal -4.105517e-06 5.5356363e-06 0.0
  outer loop
    vertex 0.006566203 0.0011334876 0.0067997724
    vertex 0.006566203 0.0011334876 0.0
    vertex 0.005752112 0.00052971486 0.0
  endloop
endfacet
facet normal -4.6283353e-06 5.1065745e-06 0.0
  outer loop
    vertex 0.006566203 0.0011334876 0.0
    vertex 0.006566203 0.0011334876 0.0067997724
    vertex 0.007317195 0.0018141479 0.0067997724
  endloop
endfacet
facet normal -4.6283353e-06 5.1065745e-06 0.0
  outer loop
    vertex 0.007317195 0.0018141479 0.0067997724
    vertex 0.007317195 0.0018141479 0.0
    vertex 0.006566203 0.0011334876 0.0
  endloop
endfacet
facet normal -5.106568e-06 4.6283103e-06 0.0
  outer loop
    vertex 0.007317195 0.0018141479 0.0
    vertex 0.007317195 0.0018141479 0.0067997724
    vertex 0.007997852 0.002565139 0.0067997724
  endloop
endfacet
facet normal -5.106568e-06 4.6283103e-06 0.0
  outer loop
    vertex 0.007997852 0.002565139 0.0067997724
    vertex 0.007997852 0.002565139 0.0
    vertex 0.007317195 0.0018141479 0.0
  endloop
endfacet
facet normal -5.53563e-06 4.1054977e-06 0.0
  outer loop
    vertex 0.007997852 0.002565139 0.0
    vertex 0.007997852 0.002565139 0.0067997724
    vertex 0.008601622 0.0033792295 0.0067997724
  endloop
endfacet
facet normal -5.53563e-06 4.1054977e-06 0.0
  outer loop
    vertex 0.008601622 0.0033792295 0.0067997724
    vertex 0.008601622 0.0033792295 0.0
    vertex 0.007997852 0.002565139 0.0
  endloop
endfacet
facet normal -5.9113854e-06 3.5431406e-06 0.0
  outer loop
    vertex 0.008601622 0.0033792295 0.0
    vertex 0.008601622 0.0033792295 0.0067997724
    vertex 0.009122689 0.00424858 0.0067997724
  endloop
endfacet
facet normal -5.9113854e-06 3.5431406e-06 0.0
  outer loop
    vertex 0.009122689 0.00424858 0.0067997724
    vertex 0.009122689 0.00424858 0.0
    vertex 0.008601622 0.0033792295 0.0
  endloop
endfacet
facet normal -6.2302065e-06 2.9466685e-06 0.0
  outer loop
    vertex 0.009122689 0.00424858 0.0
    vertex 0.009122689 0.00424858 0.0067997724
    vertex 0.009556037 0.0051648174 0.0067997724
  endloop
endfacet
facet normal -6.2302065e-06 2.9466685e-06 0.0
  outer loop
    vertex 0.009556037 0.0051648174 0.0067997724
    vertex 0.009556037 0.0051648174 0.0
    vertex 0.009122689 0.00424858 0.0
  endloop
endfacet
facet normal -6.4890332e-06 2.3218067e-06 0.0
  outer loop
    vertex 0.009556037 0.0051648174 0.0
    vertex 0.009556037 0.0051648174 0.0067997724
    vertex 0.009897491 0.006119119 0.0067997724
  endloop
endfacet
facet normal -6.4890332e-06 2.3218067e-06 0.0
  outer loop
    vertex 0.009897491 0.006119119 0.0067997724
    vertex 0.009897491 0.006119119 0.0
    vertex 0.009556037 0.0051648174 0.0
  endloop
endfacet
facet normal -6.685359e-06 1.6745964e-06 0.0
  outer loop
    vertex 0.009897491 0.006119119 0.0
    vertex 0.009897491 0.006119119 0.0067997724
    vertex 0.010143763 0.007102293 0.0067997724
  endloop
endfacet
facet normal -6.685359e-06 1.6745964e-06 0.0
  outer loop
    vertex 0.010143763 0.007102293 0.0067997724
    vertex 0.010143763 0.007102293 0.0
    vertex 0.009897491 0.006119119 0.0
  endloop
endfacet
facet normal -6.817309e-06 1.0112566e-06 0.0
  outer loop
    vertex 0.010143763 0.007102293 0.0
    vertex 0.010143763 0.007102293 0.0067997724
    vertex 0.010292483 0.008104872 0.0067997724
  endloop
endfacet
facet normal -6.817309e-06 1.0112566e-06 0.0
  outer loop
    vertex 0.010292483 0.008104872 0.0067997724
    vertex 0.010292483 0.008104872 0.0
    vertex 0.010143763 0.007102293 0.0
  endloop
endfacet
facet normal -6.8836007e-06 3.3817054e-07 0.0
  outer loop
    vertex 0.010292483 0.008104872 0.0
    vertex 0.010292483 0.008104872 0.0067997724
    vertex 0.010342215 0.0091172 0.0067997724
  endloop
endfacet
facet normal -6.8836007e-06 3.3817054e-07 0.0
  outer loop
    vertex 0.010342215 0.0091172 0.0067997724
    vertex 0.010342215 0.0091172 0.0
    vertex 0.010292483 0.008104872 0.0
  endloop
endfacet
facet normal -6.8836007e-06 -3.381642e-07 0.0
  outer loop
    vertex 0.010342215 0.0091172 0.0
    vertex 0.010342215 0.0091172 0.0067997724
    vertex 0.0102924835 0.010129528 0.0067997724
  endloop
endfacet
facet normal -6.8836007e-06 -3.381642e-07 -0.0
  outer loop
    vertex 0.0102924835 0.010129528 0.0067997724
    vertex 0.0102924835 0.010129528 0.0
    vertex 0.010342215 0.0091172 0.0
  endloop
endfacet
facet normal -6.817309e-06 -1.0112502e-06 0.0
  outer loop
    vertex 0.0102924835 0.010129528 0.0
    vertex 0.0102924835 0.010129528 0.0067997724
    vertex 0.010143765 0.011132107 0.0067997724
  endloop
endfacet
facet normal -6.817309e-06 -1.0112502e-06 -0.0
  outer loop
    vertex 0.010143765 0.011132107 0.0067997724
    vertex 0.010143765 0.011132107 0.0
    vertex 0.0102924835 0.010129528 0.0
  endloop
endfacet
facet normal -6.685359e-06 -1.6745901e-06 0.0
  outer loop
    vertex 0.010143765 0.011132107 0.0
    vertex 0.010143765 0.011132107 0.0067997724
    vertex 0.009897494 0.012115281 0.0067997724
  endloop
endfacet
facet normal -6.685359e-06 -1.6745901e-06 -0.0
  outer loop
    vertex 0.009897494 0.012115281 0.0067997724
    vertex 0.009897494 0.012115281 0.0
    vertex 0.010143765 0.011132107 0.0
  endloop
endfacet
facet normal -6.4890364e-06 -2.3218004e-06 0.0
  outer loop
    vertex 0.009897494 0.012115281 0.0
    vertex 0.009897494 0.012115281 0.0067997724
    vertex 0.009556041 0.013069583 0.0067997724
  endloop
endfacet
facet normal -6.4890364e-06 -2.3218004e-06 -0.0
  outer loop
    vertex 0.009556041 0.013069583 0.0067997724
    vertex 0.009556041 0.013069583 0.0
    vertex 0.009897494 0.012115281 0.0
  endloop
endfacet
facet normal -6.2302092e-06 -2.9466623e-06 0.0
  outer loop
    vertex 0.009556041 0.013069583 0.0
    vertex 0.009556041 0.013069583 0.0067997724
    vertex 0.009122694 0.013985821 0.0067997724
  endloop
endfacet
facet normal -6.2302092e-06 -2.9466623e-06 -0.0
  outer loop
    vertex 0.009122694 0.013985821 0.0067997724
    vertex 0.009122694 0.013985821 0.0
    vertex 0.009556041 0.013069583 0.0
  endloop
endfacet
facet normal -5.911392e-06 -3.5431342e-06 0.0
  outer loop
    vertex 0.009122694 0.013985821 0.0
    vertex 0.009122694 0.013985821 0.0067997724
    vertex 0.008601627 0.0148551725 0.0067997724
  endloop
endfacet
facet normal -5.911392e-06 -3.5431342e-06 -0.0
  outer loop
    vertex 0.008601627 0.0148551725 0.0067997724
    vertex 0.008601627 0.0148551725 0.0
    vertex 0.009122694 0.013985821 0.0
  endloop
endfacet
facet normal -5.5356363e-06 -4.1054914e-06 0.0
  outer loop
    vertex 0.008601627 0.0148551725 0.0
    vertex 0.008601627 0.0148551725 0.0067997724
    vertex 0.007997858 0.015669264 0.0067997724
  endloop
endfacet
facet normal -5.5356363e-06 -4.1054914e-06 -0.0
  outer loop
    vertex 0.007997858 0.015669264 0.0067997724
    vertex 0.007997858 0.015669264 0.0
    vertex 0.008601627 0.0148551725 0.0
  endloop
endfacet
facet normal -5.106565e-06 -4.6283103e-06 0.0
  outer loop
    vertex 0.007997858 0.015669264 0.0
    vertex 0.007997858 0.015669264 0.0067997724
    vertex 0.0073172017 0.016420254 0.0067997724
  endloop
endfacet
facet normal -5.106565e-06 -4.6283103e-06 -0.0
  outer loop
    vertex 0.0073172017 0.016420254 0.0067997724
    vertex 0.0073172017 0.016420254 0.0
    vertex 0.007997858 0.015669264 0.0
  endloop
endfacet
facet normal -4.6283385e-06 -5.1065554e-06 0.0
  outer loop
    vertex 0.0073172017 0.016420254 0.0
    vertex 0.0073172017 0.016420254 0.0067997724
    vertex 0.0065662125 0.017100915 0.0067997724
  endloop
endfacet
facet normal -4.6283385e-06 -5.1065554e-06 -0.0
  outer loop
    vertex 0.0065662125 0.017100915 0.0067997724
    vertex 0.0065662125 0.017100915 0.0
    vertex 0.0073172017 0.016420254 0.0
  endloop
endfacet
facet normal -4.105504e-06 -5.535617e-06 0.0
  outer loop
    vertex 0.0065662125 0.017100915 0.0
    vertex 0.0065662125 0.017100915 0.0067997724
    vertex 0.005752124 0.017704686 0.0067997724
  endloop
endfacet
facet normal -4.105504e-06 -5.535617e-06 -0.0
  outer loop
    vertex 0.005752124 0.017704686 0.0067997724
    vertex 0.005752124 0.017704686 0.0
    vertex 0.0065662125 0.017100915 0.0
  endloop
endfacet
facet normal -3.543166e-06 -5.9113727e-06 0.0
  outer loop
    vertex 0.005752124 0.017704686 0.0
    vertex 0.005752124 0.017704686 0.0067997724
    vertex 0.0048827752 0.018225757 0.0067997724
  endloop
endfacet
facet normal -3.543166e-06 -5.9113727e-06 -0.0
  outer loop
    vertex 0.0048827752 0.018225757 0.0067997724
    vertex 0.0048827752 0.018225757 0.0
    vertex 0.005752124 0.017704686 0.0
  endloop
endfacet
facet normal -2.9466812e-06 -6.230197e-06 0.0
  outer loop
    vertex 0.0048827752 0.018225757 0.0
    vertex 0.0048827752 0.018225757 0.0067997724
    vertex 0.003966539 0.018659107 0.0067997724
  endloop
endfacet
facet normal -2.9466812e-06 -6.230197e-06 -0.0
  outer loop
    vertex 0.003966539 0.018659107 0.0067997724
    vertex 0.003966539 0.018659107 0.0
    vertex 0.0048827752 0.018225757 0.0
  endloop
endfacet
facet normal -2.3218256e-06 -6.4890237e-06 0.0
  outer loop
    vertex 0.003966539 0.018659107 0.0
    vertex 0.003966539 0.018659107 0.0067997724
    vertex 0.003012239 0.019000564 0.0067997724
  endloop
endfacet
facet normal -2.3218256e-06 -6.4890237e-06 -0.0
  outer loop
    vertex 0.003012239 0.019000564 0.0067997724
    vertex 0.003012239 0.019000564 0.0
    vertex 0.003966539 0.018659107 0.0
  endloop
endfacet
facet normal -1.6746154e-06 -6.685356e-06 0.0
  outer loop
    vertex 0.003012239 0.019000564 0.0
    vertex 0.003012239 0.019000564 0.0067997724
    vertex 0.0020290655 0.019246839 0.0067997724
  endloop
endfacet
facet normal -1.6746154e-06 -6.685356e-06 -0.0
  outer loop
    vertex 0.0020290655 0.019246839 0.0067997724
    vertex 0.0020290655 0.019246839 0.0
    vertex 0.003012239 0.019000564 0.0
  endloop
endfacet
facet normal -1.0112818e-06 -6.8173035e-06 0.0
  outer loop
    vertex 0.0020290655 0.019246839 0.0
    vertex 0.0020290655 0.019246839 0.0067997724
    vertex 0.0010264873 0.019395562 0.0067997724
  endloop
endfacet
facet normal -1.0112818e-06 -6.8173035e-06 -0.0
  outer loop
    vertex 0.0010264873 0.019395562 0.0067997724
    vertex 0.0010264873 0.019395562 0.0
    vertex 0.0020290655 0.019246839 0.0
  endloop
endfacet
facet normal -3.3819586e-07 -6.8838553e-06 0.0
  outer loop
    vertex 0.0010264873 0.019395562 0.0
    vertex 0.0010264873 0.019395562 0.0067997724
    vertex 1.4121761e-05 0.019445298 0.0067997724
  endloop
endfacet
facet normal -3.3819586e-07 -6.8838553e-06 -0.0
  outer loop
    vertex 1.4121761e-05 0.019445298 0.0067997724
    vertex 1.4121761e-05 0.019445298 0.0
    vertex 0.0010264873 0.019395562 0.0
  endloop
endfacet
facet normal 3.3817054e-07 -6.883615e-06 0.0
  outer loop
    vertex 1.4121761e-05 0.019445298 0.0
    vertex 1.4121761e-05 0.019445298 0.0067997724
    vertex -0.0009982084 0.019395566 0.0067997724
  endloop
endfacet
facet normal 3.3817054e-07 -6.883615e-06 0.0
  outer loop
    vertex -0.0009982084 0.019395566 0.0067997724
    vertex -0.0009982084 0.019395566 0.0
    vertex 1.4121761e-05 0.019445298 0.0
  endloop
endfacet
endsolid b'Exported from Blender-2.72 (sub 0)\x00\x00\x00\x00\x00\x00\x00\x00\x00\x00\x00\x00\x00\x00\x00\x00\x00\x00\x00\x00\x00\x00\x00\x00\x00\x00\x00\x00\x00\x00\x00\x00\x00\x00\x00\x00\x00\x00\x00\x00\x00\x00\x00\x00\x00\x00'
